<?xml version="1.0" encoding="UTF-8" standalone="no"?>
<svg
   xmlns:dc="http://purl.org/dc/elements/1.1/"
   xmlns:cc="http://creativecommons.org/ns#"
   xmlns:rdf="http://www.w3.org/1999/02/22-rdf-syntax-ns#"
   xmlns:svg="http://www.w3.org/2000/svg"
   xmlns="http://www.w3.org/2000/svg"
   id="svg3388"
   xml:space="preserve"
   enable-background="new 0 0 1000 1000"
   viewBox="0 0 1000 1000"
   y="0px"
   x="0px"
   version="1.1"><defs
     id="defs3400" /><metadata
     id="metadata3390">Capello de Formatura<rdf:RDF><cc:Work
     rdf:about=""><dc:format>image/svg+xml</dc:format><dc:type
       rdf:resource="http://purl.org/dc/dcmitype/StillImage" /><dc:title></dc:title></cc:Work></rdf:RDF></metadata><g
     transform="matrix(1,0,0,1.0705172,0,-35.256844)"
     id="g3392"><path
       id="path3394"
       d="M 969.6,312.4 535.2,162.6 c -27.1,-9.9 -21.4,-9.9 -48.3,-0.2 L 50.1,311 c -26.8,9.7 -26.8,25.7 0.4,35.4 l 103.8,35.4 c -46,44.7 -49,91.3 -49.6,145.1 -17.8,6.8 -30.4,24.1 -30.4,44.4 0,18.7 10.6,34.7 26,42.6 C 93,668.6 72,731.1 10,805.1 c 30.5,23.7 46.3,31.8 70.2,39.7 86.6,-37.4 76,-136.3 69.3,-235 11.9,-8.6 19.6,-22.6 19.6,-38.6 0,-17.1 -9,-32 -22.3,-40.2 1.6,-52.8 12.9,-100.1 52.3,-130.6 0.4,-0.7 1.3,-1.6 2.9,-2.2 l 62.7,21.4 225.8,76.9 c 27.1,9.9 21.4,9.9 48.3,0.2 L 969.7,348.1 c 27.2,-10 27,-26 -0.1,-35.7 l 0,0 0,0 z" /><path
       id="path3396"
       d="m 539,566.9 c -26.9,9.7 -21.2,9.7 -48.3,-0.2 l -225.8,-76.9 -55.9,-19 0,213.9 0,0 0,0 0,2.5 0,0 c 3.8,60.7 143.9,109.6 316,109.6 172.1,0 312.2,-48.9 316,-109.6 l 0,0 0,-224.4 -302,104.1 z" /></g></svg>